<svg xmlns="http://www.w3.org/2000/svg" xmlns:xlink="http://www.w3.org/1999/xlink" width="62.738" height="58.023" viewBox="0 0 62.738 58.023">
  <defs>
    <clipPath id="clip-path">
      <rect id="Rectangle_40" data-name="Rectangle 40" width="62.738" height="58.023" transform="translate(0 0)" fill="none"/>
    </clipPath>
  </defs>
  <g id="Group_119" data-name="Group 119" transform="translate(0 -0.002)">
    <g id="Group_118" data-name="Group 118" transform="translate(0 0.002)" clip-path="url(#clip-path)">
      <path id="Path_296" data-name="Path 296" d="M59.564,481.46,47.65,488.113c-.255.147-.463.027-.463-.267v-6.317a3.842,3.842,0,0,0-3.842-3.842H3.842A3.842,3.842,0,0,0,0,481.529V508.6a3.842,3.842,0,0,0,3.842,3.842h39.5a3.842,3.842,0,0,0,3.842-3.842v-6.327c0-.294.208-.414.463-.267l11.914,6.653a2.116,2.116,0,0,0,3.174-1.832V483.292a2.116,2.116,0,0,0-3.174-1.832" transform="translate(0 -454.419)" fill="#333"/>
      <path id="Path_297" data-name="Path 297" d="M84.109,174.806a6.947,6.947,0,1,1-6.947-6.947,6.947,6.947,0,0,1,6.947,6.947" transform="translate(-66.795 -159.683)" fill="#333"/>
      <path id="Path_298" data-name="Path 298" d="M477.236,10.424A10.421,10.421,0,1,1,466.816,0a10.421,10.421,0,0,1,10.421,10.421" transform="translate(-434.164 -0.003)" fill="#333"/>
      <path id="Path_299" data-name="Path 299" d="M383.217,677.554a.282.282,0,0,0,0-.534l-13.4-7.734c-.255-.147-.463-.027-.463.267v15.469c0,.294.208.414.463.267Z" transform="translate(-351.367 -636.625)" fill="#fff"/>
    </g>
  </g>
</svg>
