<svg xmlns="http://www.w3.org/2000/svg" width="72.792" height="49.136" viewBox="0 0 72.792 49.136">
  <path id="Icon_zocial-email" data-name="Icon zocial-email" d="M.072,48.852V8.42q0-.07.211-1.334l23.8,20.357L.353,50.256a5.949,5.949,0,0,1-.281-1.4ZM3.231,4.279a3.025,3.025,0,0,1,1.193-.211H68.512a3.975,3.975,0,0,1,1.264.211L45.909,24.705l-3.159,2.527L36.5,32.357l-6.247-5.124L27.1,24.705ZM3.3,52.994,27.238,30.04,36.5,37.551l9.266-7.511L69.706,52.994a3.37,3.37,0,0,1-1.193.211H4.424A3.179,3.179,0,0,1,3.3,52.994ZM48.928,27.443,72.654,7.086a4.19,4.19,0,0,1,.211,1.334V48.852a5.38,5.38,0,0,1-.211,1.4Z" transform="translate(-0.072 -4.068)"/>
</svg>
