<svg xmlns="http://www.w3.org/2000/svg" width="108.292" height="108.31" viewBox="0 0 108.292 108.31">
  <g id="Group_9" data-name="Group 9" transform="translate(-1102.354 -1263)">
    <path id="Icon_open-monitor" data-name="Icon open-monitor" d="M4.608.018a6.768,6.768,0,0,0-4.6,6.768V74.463A6.768,6.768,0,0,0,6.774,81.23H40.612V94.766H27.077A13.575,13.575,0,0,0,13.542,108.3H94.753A13.575,13.575,0,0,0,81.218,94.766H67.683V81.23h33.838a6.768,6.768,0,0,0,6.768-6.768V6.786A6.768,6.768,0,0,0,101.521.018H6.774a6.768,6.768,0,0,0-1.218,0,6.768,6.768,0,0,0-.812,0Zm8.933,13.535H94.753V67.695H13.542Z" transform="translate(1102.357 1263.009)" fill="#007a9c"/>
    <path id="Icon_ionic-ios-settings" data-name="Icon ionic-ios-settings" d="M35.994,21.664a4.417,4.417,0,0,1,2.834-4.121,17.509,17.509,0,0,0-2.119-5.1,4.476,4.476,0,0,1-1.8.384,4.407,4.407,0,0,1-4.032-6.2,17.456,17.456,0,0,0-5.1-2.119,4.413,4.413,0,0,1-8.242,0,17.509,17.509,0,0,0-5.1,2.119,4.407,4.407,0,0,1-4.032,6.2,4.331,4.331,0,0,1-1.8-.384A17.9,17.9,0,0,0,4.5,17.552a4.416,4.416,0,0,1,.009,8.242,17.509,17.509,0,0,0,2.119,5.1,4.409,4.409,0,0,1,5.82,5.82,17.611,17.611,0,0,0,5.1,2.119,4.405,4.405,0,0,1,8.224,0,17.509,17.509,0,0,0,5.1-2.119A4.414,4.414,0,0,1,36.7,30.9a17.611,17.611,0,0,0,2.119-5.1A4.438,4.438,0,0,1,35.994,21.664ZM21.744,28.806A7.152,7.152,0,1,1,28.9,21.655,7.15,7.15,0,0,1,21.744,28.806Z" transform="translate(1134.836 1281.648)" fill="#007a9c"/>
  </g>
</svg>
