<svg xmlns="http://www.w3.org/2000/svg" xmlns:xlink="http://www.w3.org/1999/xlink" width="136.111" height="140.82" viewBox="0 0 136.111 140.82">
  <defs>
    <clipPath id="clip-path">
      <path id="Path_295" data-name="Path 295" d="M0,60.478H136.111V-80.342H0Z" transform="translate(0 80.342)" fill="none"/>
    </clipPath>
  </defs>
  <g id="Group_109" data-name="Group 109" transform="translate(0 80.342)">
    <g id="Group_108" data-name="Group 108" transform="translate(0 -80.342)" clip-path="url(#clip-path)">
      <g id="Group_103" data-name="Group 103" transform="translate(0 0.001)">
        <path id="Path_290" data-name="Path 290" d="M58.456,0,20.947,13.167,31,19.535c-24.277,33.3-61.986,53.992-108.65,66.3,44.177-.894,87.191-13.2,127.189-54.523l8.922,5.672Z" transform="translate(77.655)" fill="#8c4d26"/>
      </g>
      <g id="Group_104" data-name="Group 104" transform="translate(0.663 96.246)">
        <path id="Path_291" data-name="Path 291" d="M0,19.143H18.108V-25.431l-.3.067C13.9-24.733,9.851-24.1.531-22.513Z" transform="translate(0 25.431)" fill="#8c4d26"/>
      </g>
      <g id="Group_105" data-name="Group 105" transform="translate(38.571 89.249)">
        <path id="Path_292" data-name="Path 292" d="M0,22.148H18.141V-29.423C12.271-28.031,6.268-26.836,0-25.709Z" transform="translate(0 29.423)" fill="#8c4d26"/>
      </g>
      <g id="Group_106" data-name="Group 106" transform="translate(76.512 75.286)">
        <path id="Path_293" data-name="Path 293" d="M0,28.145H18.141V-37.389A137.017,137.017,0,0,1,0-29.265Z" transform="translate(0 37.389)" fill="#8c4d26"/>
      </g>
      <g id="Group_107" data-name="Group 107" transform="translate(114.453 46.035)">
        <path id="Path_294" data-name="Path 294" d="M0,40.708H18.108V-54.078A186.992,186.992,0,0,1,0-37.828Z" transform="translate(0 54.078)" fill="#8c4d26"/>
      </g>
    </g>
  </g>
</svg>
