<svg xmlns="http://www.w3.org/2000/svg" width="92.837" height="108.31" viewBox="0 0 92.837 108.31">
  <path id="Icon_material-person-pin" data-name="Icon material-person-pin" d="M87.022,3H14.815A10.312,10.312,0,0,0,4.5,13.315V85.522A10.312,10.312,0,0,0,14.815,95.837h20.63L50.919,111.31,66.391,95.837h20.63A10.346,10.346,0,0,0,97.337,85.522V13.315A10.346,10.346,0,0,0,87.022,3Zm-36.1,17.02A13.926,13.926,0,1,1,36.993,33.946,13.933,13.933,0,0,1,50.919,20.02ZM81.864,75.207H19.973V70.565c0-10.315,20.63-15.989,30.946-15.989S81.864,60.25,81.864,70.565Z" transform="translate(-4.5 -3)" fill="#007a9c"/>
</svg>
