<svg xmlns="http://www.w3.org/2000/svg" width="137.849" height="108.31" viewBox="0 0 137.849 108.31">
  <g id="Icon_ionic-md-megaphone" data-name="Icon ionic-md-megaphone" transform="translate(-2.25 -5.625)">
    <path id="Path_24" data-name="Path 24" d="M32.35,10.083,25.242,17.16a25.034,25.034,0,0,1,0,35.447l7.108,7.108a35.1,35.1,0,0,0,0-49.632Z" transform="translate(77.625 15.05)" fill="#007a9c"/>
    <path id="Path_25" data-name="Path 25" d="M35.5,6.961l-6.985,6.985A44.445,44.445,0,0,1,41.527,45.423,44.424,44.424,0,0,1,28.512,76.9L35.5,83.886A54.469,54.469,0,0,0,51.435,45.423,54.34,54.34,0,0,0,35.5,6.961Z" transform="translate(88.664 4.51)" fill="#007a9c"/>
    <path id="Path_26" data-name="Path 26" d="M90.867,37.656V5.625H81.021L51.482,30.241H12.1L2.25,35.164V69.626L12.1,74.55l24.616,39.385h14.77L42.251,74.55h9.231L81.021,94.242h9.846V62.211c5.662-.523,9.846-5.816,9.846-12.277S96.529,38.18,90.867,37.656Z" fill="#007a9c"/>
  </g>
</svg>
