<svg id="Group_6" data-name="Group 6" xmlns="http://www.w3.org/2000/svg" xmlns:xlink="http://www.w3.org/1999/xlink" width="144.984" height="73.625" viewBox="0 0 144.984 73.625">
  <defs>
    <clipPath id="clip-path">
      <rect id="Rectangle_17" data-name="Rectangle 17" width="144.984" height="73.625" fill="none"/>
    </clipPath>
  </defs>
  <g id="Group_5" data-name="Group 5" clip-path="url(#clip-path)">
    <path id="Path_11" data-name="Path 11" d="M10.29,37.643a15.793,15.793,0,0,1-5.55-.591A10.817,10.817,0,0,1,0,34.286l5.411-5.6a10.431,10.431,0,0,0,3.015,1.79,7.527,7.527,0,0,0,3.3.533,5.551,5.551,0,0,0,2.645-.72,2.384,2.384,0,0,0,1.076-1.58,1.22,1.22,0,0,0-.1-.874,1.871,1.871,0,0,0-.659-.615,6.659,6.659,0,0,0-1.126-.514c-.444-.159-.957-.334-1.543-.528l-3.36-1.257A7.833,7.833,0,0,1,6.626,23.9a5.74,5.74,0,0,1-2.409-3.818,7.806,7.806,0,0,1,.069-2.83A9.669,9.669,0,0,1,5.76,13.68a13.123,13.123,0,0,1,2.792-3.027,15.171,15.171,0,0,1,3.812-2.2A14.942,14.942,0,0,1,16.89,7.424a13.216,13.216,0,0,1,4.932.569,8.8,8.8,0,0,1,4.058,2.619l-4.786,5.111a10.123,10.123,0,0,0-2.563-1.358,7.218,7.218,0,0,0-2.892-.319,5.186,5.186,0,0,0-2.345.655,2.222,2.222,0,0,0-1.09,1.534,1.274,1.274,0,0,0,.848,1.506,29.289,29.289,0,0,0,2.925,1.09l3.295,1.128a6.636,6.636,0,0,1,3.665,2.692,6.712,6.712,0,0,1,.548,4.859,10.546,10.546,0,0,1-1.432,3.59,12.557,12.557,0,0,1-2.791,3.136A15.5,15.5,0,0,1,15.3,36.531a16.477,16.477,0,0,1-5.007,1.112" fill="#aad3df"/>
    <path id="Path_12" data-name="Path 12" d="M25.745,35.994l5.5-29.081,7.744-.561L34.706,28.991l11.078-.8L44.566,34.63Z" fill="#aad3df"/>
    <path id="Path_13" data-name="Path 13" d="M48.843,34.32l5.5-29.081L73.25,3.869l-1.218,6.442-11.167.809L60,15.684l9.547-.692-1.218,6.443-9.547.692-.981,5.19,11.618-.842L68.2,32.917Z" fill="#aad3df"/>
    <path id="Path_14" data-name="Path 14" d="M73.111,32.562l5.5-29.081,18.911-1.37L96.3,8.553l-11.167.809-.862,4.564,9.547-.692L92.6,19.677l-9.547.692-.981,5.19,11.618-.842-1.218,6.442Z" fill="#aad3df"/>
    <path id="Path_15" data-name="Path 15" d="M97.381,30.8l5.5-29.081,7.744-.562-2.046,10.828.181-.013L118.187.614,126.651,0,115.684,12.445l7.182,16.512-8.465.614L110.03,18.856l-3.535,4.138-1.37,7.248Z" fill="#aad3df"/>
    <path id="Path_16" data-name="Path 16" d="M21.434,73.625l5.5-29.081,8.285-.6,2.163,11.581q.177,1.181.292,2.451t.275,2.539l.18-.013q.649-1.326,1.256-2.65t1.239-2.562L47.1,43.082l8.285-.6-5.5,29.081-7.024.509,1.623-8.59q.212-1.119.578-2.469t.767-2.77q.4-1.419.836-2.773t.772-2.44l-.18.014L43.511,60.2l-5.42,9.88-4.142.3-1.785-9.359-1.022-6.809-.18.013c-.044.709-.093,1.506-.141,2.393s-.117,1.795-.2,2.728-.18,1.845-.273,2.734-.212,1.707-.353,2.453l-1.623,8.59Z" fill="#aad3df"/>
    <path id="Path_17" data-name="Path 17" d="M55.607,71.148l5.5-29.081L80.014,40.7,78.8,47.139l-11.167.81-.862,4.564,9.547-.692L75.1,58.264l-9.547.692-.981,5.189L76.186,63.3l-1.218,6.443Z" fill="#aad3df"/>
    <path id="Path_18" data-name="Path 18" d="M79.876,69.39l5.5-29.081,8.645-.627a20.056,20.056,0,0,1,5.95.365,8.831,8.831,0,0,1,4.268,2.2,8.252,8.252,0,0,1,2.239,4.25,16.413,16.413,0,0,1-.14,6.5A21.836,21.836,0,0,1,104,59.7a16.852,16.852,0,0,1-9.037,7.759,21.852,21.852,0,0,1-5.992,1.272Zm8.911-6.735.451-.032a12.671,12.671,0,0,0,3.044-.6,7.827,7.827,0,0,0,2.659-1.494,9.1,9.1,0,0,0,2.088-2.71,15.184,15.184,0,0,0,1.381-4.249,11.847,11.847,0,0,0,.2-4.118,4.3,4.3,0,0,0-1.124-2.39,4.058,4.058,0,0,0-2.177-1.056,11.869,11.869,0,0,0-2.908-.12l-.451.033Z" fill="#aad3df"/>
    <path id="Path_19" data-name="Path 19" d="M108.018,67.352l5.5-29.081,7.743-.562L115.762,66.79Z" fill="#aad3df"/>
    <path id="Path_20" data-name="Path 20" d="M117.789,66.643,132.2,36.916l9.366-.679,3.42,28.435-8.2.594-.276-6.069-8.194.594-2.607,6.278ZM131.717,51.69l-.876,2.049,5.4-.392-.113-1.977q-.146-2.062-.22-4.486t-.2-4.575l-.179.014q-.919,2.271-1.9,4.749t-1.917,4.618" fill="#aad3df"/>
  </g>
</svg>
