<svg id="Group_2" data-name="Group 2" xmlns="http://www.w3.org/2000/svg" xmlns:xlink="http://www.w3.org/1999/xlink" width="195.932" height="99.497" viewBox="0 0 195.932 99.497">
  <defs>
    <clipPath id="clip-path">
      <rect id="Rectangle_1" data-name="Rectangle 1" width="195.932" height="99.497" fill="none"/>
    </clipPath>
  </defs>
  <g id="Group_1" data-name="Group 1" clip-path="url(#clip-path)">
    <path id="Path_1" data-name="Path 1" d="M13.906,48.276a21.353,21.353,0,0,1-7.5-.8A14.636,14.636,0,0,1,0,43.738l7.312-7.567a14.11,14.11,0,0,0,4.074,2.418,10.168,10.168,0,0,0,4.454.722,7.5,7.5,0,0,0,3.576-.974A3.221,3.221,0,0,0,20.87,36.2a1.643,1.643,0,0,0-.138-1.181,2.511,2.511,0,0,0-.892-.831,9.121,9.121,0,0,0-1.519-.695c-.6-.214-1.295-.45-2.087-.714l-4.541-1.7A10.611,10.611,0,0,1,8.954,29.7,7.757,7.757,0,0,1,5.7,24.541a10.519,10.519,0,0,1,.093-3.824,13.051,13.051,0,0,1,1.992-4.825A17.675,17.675,0,0,1,11.557,11.8,20.55,20.55,0,0,1,22.827,7.435a17.885,17.885,0,0,1,6.664.77,11.9,11.9,0,0,1,5.484,3.541l-6.468,6.907a13.7,13.7,0,0,0-3.462-1.837,9.808,9.808,0,0,0-3.91-.432,7.025,7.025,0,0,0-3.169.887,3,3,0,0,0-1.472,2.073,1.723,1.723,0,0,0,1.146,2.037,39.746,39.746,0,0,0,3.952,1.473l4.453,1.524A8.962,8.962,0,0,1,31,28.015q1.518,2.455.741,6.565A14.18,14.18,0,0,1,29.8,39.431a16.825,16.825,0,0,1-3.772,4.239,20.815,20.815,0,0,1-5.357,3.1,22.268,22.268,0,0,1-6.766,1.5" transform="translate(0 2.596)" fill="#00184e"/>
    <path id="Path_2" data-name="Path 2" d="M25.745,46.411l7.427-39.3,10.465-.759L37.856,36.946,52.824,35.86l-1.646,8.707Z" transform="translate(9.047 2.232)" fill="#00184e"/>
    <path id="Path_3" data-name="Path 3" d="M48.842,45.021l7.427-39.3L81.826,3.869,80.18,12.576,65.089,13.67l-1.165,6.166,12.9-.934L75.18,27.608l-12.9.935-1.324,7.012,15.7-1.137-1.646,8.706Z" transform="translate(17.163 1.36)" fill="#00184e"/>
    <path id="Path_4" data-name="Path 4" d="M73.112,43.262l7.427-39.3L106.1,2.111l-1.646,8.707L89.358,11.912l-1.165,6.166,12.9-.935-1.646,8.706-12.9.937L85.223,33.8l15.7-1.138-1.646,8.707Z" transform="translate(25.692 0.742)" fill="#00184e"/>
    <path id="Path_5" data-name="Path 5" d="M97.38,41.628l7.427-39.3,10.465-.759L112.508,16.2l.245-.018L125.5.829,136.936,0,122.115,16.818l9.706,22.314-11.44.83-5.906-14.48L109.7,31.075l-1.851,9.794Z" transform="translate(34.22 0)" fill="#00184e"/>
    <path id="Path_6" data-name="Path 6" d="M21.433,84.569l7.427-39.3,11.2-.812L42.98,60.107q.239,1.593.393,3.312t.373,3.431l.243-.018q.88-1.794,1.7-3.581t1.676-3.462l8.758-16.5,11.2-.812-7.427,39.3L50.4,82.47,52.59,70.86q.286-1.51.782-3.335t1.037-3.743q.543-1.918,1.128-3.747t1.042-3.3l-.241.018-5.07,9.672L43.943,79.777l-5.6.407L35.935,67.536l-1.382-9.2-.242.018q-.093,1.437-.191,3.235t-.277,3.687q-.178,1.889-.369,3.695T33,72.279L30.8,83.889Z" transform="translate(7.532 14.928)" fill="#00184e"/>
    <path id="Path_7" data-name="Path 7" d="M55.607,81.849l7.427-39.3L88.591,40.7,86.946,49.4,71.855,50.5l-1.166,6.166,12.9-.935-1.645,8.706-12.9.937-1.326,7.012,15.7-1.138-1.646,8.708Z" transform="translate(19.54 14.301)" fill="#00184e"/>
    <path id="Path_8" data-name="Path 8" d="M79.876,79.854l7.427-39.3,11.683-.847a27.1,27.1,0,0,1,8.04.491,11.936,11.936,0,0,1,5.769,2.983,11.151,11.151,0,0,1,3.024,5.743,22.178,22.178,0,0,1-.188,8.78,29.535,29.535,0,0,1-3.154,9.056,22.755,22.755,0,0,1-12.211,10.484,29.494,29.494,0,0,1-8.1,1.72Zm12.042-9.1.609-.043a17.06,17.06,0,0,0,4.114-.808,10.549,10.549,0,0,0,3.592-2.019,12.219,12.219,0,0,0,2.822-3.662,20.422,20.422,0,0,0,1.866-5.741,16.016,16.016,0,0,0,.272-5.565,5.812,5.812,0,0,0-1.52-3.231,5.469,5.469,0,0,0-2.941-1.426,16.04,16.04,0,0,0-3.93-.162l-.609.045Z" transform="translate(28.069 13.92)" fill="#00184e"/>
    <path id="Path_9" data-name="Path 9" d="M108.017,77.768l7.427-39.3,10.465-.759-7.427,39.3Z" transform="translate(37.958 13.251)" fill="#00184e"/>
    <path id="Path_10" data-name="Path 10" d="M117.787,77.329l19.475-40.173,12.657-.918,4.622,38.427-11.076.8-.37-8.2-11.073.8L128.5,76.553ZM136.611,57.12l-1.184,2.769,7.3-.53-.154-2.67q-.195-2.789-.3-6.062t-.27-6.183l-.243.019q-1.243,3.069-2.564,6.416t-2.589,6.241" transform="translate(41.391 12.734)" fill="#00184e"/>
  </g>
</svg>
